<svg width="17" height="16" viewBox="0 0 17 16" fill="none" xmlns="http://www.w3.org/2000/svg">
<path d="M1 11.8333H2.9975C3.66743 11.8333 4.32748 11.6717 4.92168 11.3623C5.51587 11.0528 6.02669 10.6047 6.41083 10.0558L6.55833 9.845M9.60833 5.48917L9.75583 5.2775C10.14 4.72864 10.6508 4.2805 11.245 3.97107C11.8392 3.66164 12.4992 3.50005 13.1692 3.5H16" stroke="#555555" stroke-width="2" stroke-linecap="round" stroke-linejoin="round"/>
<path d="M13.5 1L16 3.5L13.5 6M1 3.5H2.9975C3.66743 3.50005 4.32748 3.66164 4.92168 3.97107C5.51587 4.2805 6.02669 4.72864 6.41083 5.2775L9.75583 10.0558C10.14 10.6047 10.6508 11.0528 11.245 11.3623C11.8392 11.6717 12.4992 11.8333 13.1692 11.8333H16" stroke="#555555" stroke-width="2" stroke-linecap="round" stroke-linejoin="round"/>
<path d="M13.5 14.3334L16 11.8334L13.5 9.33337" stroke="#555555" stroke-width="2" stroke-linecap="round" stroke-linejoin="round"/>
</svg>
