<svg width="24" height="26" viewBox="0 0 24 26" fill="none" xmlns="http://www.w3.org/2000/svg">
<path d="M11.707 13.293C11.5184 13.1108 11.2658 13.01 11.0036 13.0123C10.7414 13.0146 10.4906 13.1198 10.3052 13.3052C10.1198 13.4906 10.0146 13.7414 10.0123 14.0036C10.01 14.2658 10.1108 14.5184 10.293 14.707L11.707 13.293ZM14 17L14.707 17.707C14.8945 17.5195 14.9998 17.2652 14.9998 17C14.9998 16.7348 14.8945 16.4805 14.707 16.293L14 17ZM10.293 19.293C10.1108 19.4816 10.01 19.7342 10.0123 19.9964C10.0146 20.2586 10.1198 20.5094 10.3052 20.6948C10.4906 20.8802 10.7414 20.9854 11.0036 20.9877C11.2658 20.99 11.5184 20.8892 11.707 20.707L10.293 19.293ZM1 8C0.734784 8 0.48043 8.10536 0.292893 8.29289C0.105357 8.48043 0 8.73478 0 9C0 9.26522 0.105357 9.51957 0.292893 9.70711C0.48043 9.89464 0.734784 10 1 10V8ZM23 10C23.2652 10 23.5196 9.89464 23.7071 9.70711C23.8946 9.51957 24 9.26522 24 9C24 8.73478 23.8946 8.48043 23.7071 8.29289C23.5196 8.10536 23.2652 8 23 8V10ZM16 5C16 5.26522 16.1054 5.51957 16.2929 5.70711C16.4804 5.89464 16.7348 6 17 6C17.2652 6 17.5196 5.89464 17.7071 5.70711C17.8946 5.51957 18 5.26522 18 5H16ZM18 1C18 0.734784 17.8946 0.48043 17.7071 0.292893C17.5196 0.105357 17.2652 0 17 0C16.7348 0 16.4804 0.105357 16.2929 0.292893C16.1054 0.48043 16 0.734784 16 1H18ZM6 5C6 5.26522 6.10536 5.51957 6.29289 5.70711C6.48043 5.89464 6.73478 6 7 6C7.26522 6 7.51957 5.89464 7.70711 5.70711C7.89464 5.51957 8 5.26522 8 5H6ZM8 1C8 0.734784 7.89464 0.48043 7.70711 0.292893C7.51957 0.105357 7.26522 0 7 0C6.73478 0 6.48043 0.105357 6.29289 0.292893C6.10536 0.48043 6 0.734784 6 1H8ZM10.293 14.707L13.293 17.707L14.707 16.293L11.707 13.293L10.293 14.707ZM13.293 16.293L10.293 19.293L11.707 20.707L14.707 17.707L13.293 16.293ZM3 4H21V2H3V4ZM22 5V23H24V5H22ZM21 24H3V26H21V24ZM2 23V5H0V23H2ZM3 24C2.73478 24 2.48043 23.8946 2.29289 23.7071C2.10536 23.5196 2 23.2652 2 23H0C0 23.7956 0.316071 24.5587 0.87868 25.1213C1.44129 25.6839 2.20435 26 3 26V24ZM22 23C22 23.2652 21.8946 23.5196 21.7071 23.7071C21.5196 23.8946 21.2652 24 21 24V26C21.7956 26 22.5587 25.6839 23.1213 25.1213C23.6839 24.5587 24 23.7956 24 23H22ZM21 4C21.2652 4 21.5196 4.10536 21.7071 4.29289C21.8946 4.48043 22 4.73478 22 5H24C24 4.20435 23.6839 3.44129 23.1213 2.87868C22.5587 2.31607 21.7956 2 21 2V4ZM3 2C2.20435 2 1.44129 2.31607 0.87868 2.87868C0.316071 3.44129 0 4.20435 0 5H2C2 4.73478 2.10536 4.48043 2.29289 4.29289C2.48043 4.10536 2.73478 4 3 4V2ZM1 10H23V8H1V10ZM18 5V1H16V5H18ZM8 5V1H6V5H8Z" fill="white"/>
</svg>
